<?xml version="1.0" encoding="utf-8"?>
<!-- Generator: Adobe Illustrator 24.1.2, SVG Export Plug-In . SVG Version: 6.00 Build 0)  -->
<svg version="1.1" id="Layer_1" xmlns="http://www.w3.org/2000/svg" xmlns:xlink="http://www.w3.org/1999/xlink" x="0px" y="0px"
	 viewBox="0 0 66.01 66.14" style="enable-background:new 0 0 66.01 66.14;" xml:space="preserve">
<style type="text/css">
	.st0{fill:#FFFFFF;}
	.st1{fill:#533415;}
</style>
<path class="st0" d="M66.01,33.07c0,11.23-5.59,21.15-14.14,27.12c-5.36,3.75-11.88,5.95-18.92,5.95c-0.77,0-1.54-0.03-2.3-0.08
	C13.45,64.88-0.12,50.57-0.12,33.07C-0.12,14.81,14.68,0,32.95,0C51.21,0,66.01,14.81,66.01,33.07z"/>
<path class="st1" d="M14.46,35.51c-1.24-4.54-0.97-8.85,0.68-13.06c2.27-5.82,5.73-10.87,10.07-15.34c0.4-0.42,0.88-0.81,1.4-1.06
	c1.26-0.62,2.72,0.07,2.72,1.44c0.01,6.43,3.58,10.94,7.85,15.14c2.92,2.87,3.83,6.43,3.36,10.42c-0.1,0.88-0.39,1.63-1.43,1.45
	c-2.59-0.46-4.87,0.4-7.09,1.52c-1.76,0.88-3.49,1.83-5.22,2.77c-1.91,1.04-3.44,2.48-4.42,4.43c-0.6,1.2-1.32,1.26-2.36,0.55
	C17,41.71,15.4,38.74,14.46,35.51z"/>
<path class="st1" d="M46.38,46.51c-6.87,3.29-13.6,6.51-20.31,9.72c-3.61-4.98-2.24-12.48,2.83-14.58c1.58-0.66,3.01-1.67,4.55-2.43
	c4.86-2.41,9.5-0.72,11.7,4.24C45.57,44.4,45.92,45.37,46.38,46.51z"/>
<path class="st1" d="M51.87,60.19c-5.36,3.75-11.88,5.95-18.92,5.95c-0.77,0-1.54-0.03-2.3-0.08c-0.07-0.15-0.15-0.3-0.22-0.45
	c6.66-2.87,13.29-5.73,20.13-8.67C51.01,58.04,51.44,59.12,51.87,60.19z"/>
<path class="st1" d="M47.56,49.53c0.64,1.55,1.23,2.99,1.89,4.59c-6.79,2.92-13.5,5.81-20.33,8.75c-0.61-1.24-1.18-2.4-1.8-3.66
	C34.14,55.96,40.78,52.78,47.56,49.53z"/>
</svg>
