<svg id="Layer_1" data-name="Layer 1" xmlns="http://www.w3.org/2000/svg" viewBox="0 0 119 119"><defs><style>.cls-1{fill:#414141;}</style></defs><path class="cls-1" d="M54.9-.41h9.3a40.28,40.28,0,0,0,5.1.78,57.91,57.91,0,0,1,31.62,16.05c14.15,14,20.06,31.09,17.6,50.84-1.76,14.24-8.22,26.25-18.76,36a58.21,58.21,0,0,1-31.48,15.06,23.24,23.24,0,0,0-4.31.64H54.9a14.88,14.88,0,0,0-3.38-.53A59.83,59.83,0,0,1,.65,68.1,16.47,16.47,0,0,0,0,64.16V54.37c.32-.16.22-.47.25-.72A72.91,72.91,0,0,1,1.4,46.3c5-23.63,25.33-42.66,49.21-46A20.17,20.17,0,0,0,54.9-.41ZM30.2,91.89c.29-.06.86-.17,1.41-.33,4.31-1.25,8.62-2.53,12.94-3.75a16.21,16.21,0,0,0,7.31-4.32Q65.68,69.57,79.57,55.71c.62-.62.6-.91,0-1.52q-7.53-7.45-15-15c-.62-.63-.92-.58-1.51,0C54,48.46,44.82,57.73,35.61,66.9A17,17,0,0,0,31,74.57C29.77,79.05,28.39,83.5,27.14,88A3,3,0,0,0,30.2,91.89ZM92.12,40a7.66,7.66,0,0,0-2.2-5.37c-1.9-1.94-3.8-3.88-5.75-5.76a7.55,7.55,0,0,0-10.6-.06c-2,1.92-3.94,3.95-5.94,5.9-.48.47-.45.74,0,1.2q7.67,7.64,15.28,15.32c.48.49.76.43,1.21,0,2-2,4-3.95,5.89-5.95A7.58,7.58,0,0,0,92.12,40Z"/></svg>