<?xml version="1.0" encoding="utf-8"?>
<!-- Generator: Adobe Illustrator 24.1.2, SVG Export Plug-In . SVG Version: 6.00 Build 0)  -->
<svg version="1.1" id="Layer_1" xmlns="http://www.w3.org/2000/svg" xmlns:xlink="http://www.w3.org/1999/xlink" x="0px" y="0px"
	 viewBox="0 0 195.68 110.99" style="enable-background:new 0 0 195.68 110.99;" xml:space="preserve">
<style type="text/css">
	.st0{fill:#FFFFFF;}
</style>
<g>
	<path class="st0" d="M14.3,52.79c0.01-3.81,1.15-7.11,3.34-10.03c3.03-4.05,6.82-7.24,11.16-9.79c0.41-0.24,0.86-0.44,1.32-0.53
		c1.11-0.21,2.1,0.64,1.81,1.71c-1.38,5.01,0.43,9.3,2.85,13.5c1.65,2.87,1.6,5.84,0.38,8.85c-0.27,0.67-0.65,1.19-1.42,0.82
		c-1.92-0.91-3.88-0.74-5.86-0.35c-1.56,0.31-3.11,0.68-4.67,1.04c-1.71,0.4-3.22,1.19-4.4,2.5c-0.73,0.81-1.3,0.69-1.96-0.08
		C14.94,58.18,14.33,55.51,14.3,52.79z"/>
	<path class="st0" d="M22.07,89.49c1.42-0.17,2.54-0.4,3.66-0.42c3.78-0.07,7.57-0.06,11.36-0.1c4.95-0.05,9.89-0.17,14.84-0.18
		c9.61-0.03,19.22-0.01,28.83-0.01c9.86,0,19.71,0,29.57,0c8.66,0,17.31,0,25.97,0c3.59,0,7.18,0,10.77,0c7.57,0,15.15,0,22.72,0
		c1.14,0,2.17,0.26,3.06,0.93c0,0.13,0.01,0.25,0.01,0.38c-0.63,0.12-1.25,0.32-1.88,0.34c-4.66,0.12-9.33,0.21-13.99,0.31
		c-1.83,0.04-3.67,0.15-5.5,0.15c-9.17,0.02-18.34,0.01-27.5,0.01c-5.02,0-10.05,0-15.07,0c-6.14,0-12.28,0-18.42,0
		c-7.26,0-14.51,0-21.77,0c-4.3,0-8.61,0.01-12.91,0c-7.93-0.02-15.86-0.06-23.79-0.07c-2.48,0-4.95,0.05-7.43,0.07
		C23.68,90.9,22.88,90.66,22.07,89.49z"/>
	<path class="st0" d="M170.42,51.33c0.79,1.69,1.63,3.23,2.22,4.87c0.27,0.76,0.29,1.78,0.02,2.55c-2.97,8.74-6.01,17.46-9.07,26.17
		c-0.11,0.31-0.56,0.72-0.85,0.72c-2.87,0.05-5.74,0.03-8.75,0.03c0.94-2.68,1.86-5.26,2.75-7.85c2.62-7.6,5.24-15.2,7.83-22.81
		c0.31-0.91,0.8-1.49,1.68-1.85C167.62,52.61,168.95,51.98,170.42,51.33z"/>
	<path class="st0" d="M175.03,55.73c-0.96-2.11-1.86-4.11-2.78-6.09c-0.65-1.4-0.99-1.52-2.41-0.89c-1.49,0.66-3,1.31-4.47,2.02
		c-0.7,0.34-1.08,0.19-1.44-0.47c-0.93-1.67-1.89-3.33-2.87-4.97c-0.4-0.68-0.3-1.18,0.3-1.66c2.28-1.81,4.53-3.66,6.85-5.43
		c0.33-0.25,1.02-0.28,1.42-0.12c2.98,1.24,5.94,2.53,8.87,3.88c0.46,0.21,0.91,0.81,1.04,1.31c0.73,2.9,1.36,5.82,2.01,8.73
		c0.23,1.02,0.08,1.72-1.17,2.02C178.61,54.49,176.89,55.14,175.03,55.73z"/>
	<path class="st0" d="M146.64,85.67c4.38-12.62,8.72-25.13,13.17-37.94c0.98,1.79,1.92,3.41,2.75,5.08
		c0.15,0.31-0.08,0.85-0.22,1.26c-3.49,10.24-7,20.48-10.49,30.72c-0.23,0.67-0.55,0.93-1.28,0.89
		C149.31,85.62,148.04,85.67,146.64,85.67z"/>
	<path class="st0" d="M36.81,68.26c-6.07,1.08-12.01,2.14-17.94,3.2c-1.75-4.66,0.94-10.21,5.36-10.76
		c1.37-0.17,2.71-0.65,4.08-0.91c4.31-0.83,7.56,1.49,8.21,5.83C36.64,66.44,36.7,67.27,36.81,68.26z"/>
	<path class="st0" d="M81.64,75.54c0.31-1.79,0.49-3.61,0.97-5.35c0.36-1.32,0.95-2.63,1.71-3.77c1.03-1.53,3.09-1.31,3.61,0.47
		c0.55,1.88,0.65,3.89,0.88,5.85c0.28,2.41,0.51,4.82,0.69,7.24c0.04,0.52-0.25,1.07-0.38,1.61c-0.58-0.3-1.48-0.46-1.68-0.92
		c-0.64-1.48-1.22-3.03-1.44-4.61c-0.26-1.84-0.14-3.73-0.17-5.6c-0.01-0.85,0-1.7,0-2.55c-0.18-0.03-0.36-0.06-0.54-0.09
		c-0.5,1.72-1.08,3.43-1.46,5.18c-0.43,1.98-0.55,4.03-1.03,6c-0.22,0.89-0.84,1.77-1.51,2.43c-0.81,0.79-1.45,0.54-1.89-0.55
		c-0.18-0.44-0.29-0.91-0.36-1.38c-1.03-6.85-0.79-13.75-0.72-20.65c0-0.41,0.47-1.15,0.68-1.14c0.47,0.03,1.09,0.34,1.32,0.72
		c0.3,0.52,0.36,1.21,0.39,1.84c0.27,5.09,0.5,10.18,0.75,15.27C81.51,75.54,81.58,75.54,81.64,75.54z"/>
	<path class="st0" d="M104.85,49.35c0.33-1.59,0.53-3.22,1.03-4.76c0.49-1.49,1.12-2.99,1.99-4.29c1.17-1.75,3.26-1.43,3.77,0.62
		c0.45,1.82,0.39,3.77,0.51,5.66c0.15,2.42,0.27,4.84,0.34,7.26c0.02,0.54-0.24,1.09-0.37,1.64c-0.55-0.26-1.41-0.38-1.59-0.8
		c-0.58-1.32-1.16-2.74-1.28-4.15c-0.18-2.17,0.03-4.37,0.06-6.56c0.01-0.78,0-1.55-0.27-2.43c-0.44,1.03-1,2.02-1.28,3.08
		c-0.64,2.38-1.14,4.8-1.68,7.2c-0.25,1.09-0.46,2.17-1.45,2.91c-1.28,0.95-2.09,0.76-2.37-0.79c-0.27-1.52-0.45-3.09-0.42-4.63
		c0.1-5.69,0.28-11.39,0.49-17.08c0.01-0.4,0.48-1.04,0.8-1.09c0.37-0.06,1.03,0.33,1.2,0.7c0.28,0.58,0.34,1.3,0.35,1.97
		c0.03,5.18,0.01,10.36,0.01,15.54C104.74,49.35,104.79,49.35,104.85,49.35z"/>
	<path class="st0" d="M165.97,85.67c1.63-4.63,3.22-9.09,4.76-13.56c1.44-4.18,2.85-8.37,4.23-12.57c0.28-0.84,0.71-1.36,1.58-1.58
		c1.27-0.33,2.51-0.75,4.01-1.21c-0.52,1.63-0.94,3.1-1.44,4.54c-2.69,7.79-5.4,15.58-8.07,23.38c-0.26,0.76-0.58,1.09-1.42,1.03
		C168.47,85.6,167.31,85.67,165.97,85.67z"/>
	<path class="st0" d="M37.83,77.29c0.32,2.83,0.62,5.52,0.93,8.29c-5.81,0-11.54,0-17.38,0c-0.36-1.88-0.72-3.79-1.12-5.88
		C26.08,78.9,31.86,78.11,37.83,77.29z"/>
	<path class="st0" d="M110.51,68.8c0.31-3.07,0.65-6.28,0.95-9.48c0.08-0.85,0.16-1.72,1.26-1.64c1.1,0.08,1.09,1.02,1.06,1.82
		c-0.11,3.99-0.34,7.97-0.36,11.96c-0.02,2.87,0.22,5.74,0.33,8.6c0.03,0.88-0.01,1.78-1.2,1.79c-1.18,0.01-1.4-0.81-1.4-1.8
		c-0.01-0.66-0.11-1.33-0.17-2.1c-2.81,0.37-5.26-0.35-7.55-1.7c-2.62-1.55-3.5-3.94-2.56-6.85c0.76-2.37,2.97-3.55,5.43-2.68
		C107.77,67.24,109.12,68.1,110.51,68.8z M110.69,76.28c0.85-3.56-2.21-6.41-5.69-6.66c-1.26-0.09-1.93,0.52-2.1,1.77
		c-0.14,1.02,0.3,1.78,1.07,2.39C105.94,75.35,108.26,75.96,110.69,76.28z"/>
	<path class="st0" d="M47.23,37.24c1.25-1.05,2.33-2.19,3.62-2.99c2.51-1.55,4.87-0.29,4.83,2.66c-0.03,1.74-0.4,3.59-1.08,5.19
		c-1.74,4.09-3.73,8.08-5.66,12.09c-0.18,0.38-0.53,0.71-0.87,0.96c-1.08,0.76-2.06,0.47-2.36-0.81c-0.33-1.39-0.58-2.81-0.65-4.24
		c-0.23-4.17-0.36-8.34-0.53-12.51c-0.01-0.16-0.04-0.35,0.04-0.47c0.39-0.59,0.7-1.48,1.24-1.66c0.89-0.3,1.07,0.68,1.31,1.34
		C47.16,36.98,47.2,37.16,47.23,37.24z M47.97,50.78c0.15,0.02,0.29,0.04,0.44,0.06c1.7-3.67,3.43-7.33,5.07-11.02
		c0.36-0.82,0.54-1.76,0.59-2.66c0.09-1.56-0.69-2.08-1.97-1.19c-2.78,1.93-5.22,4.13-4.58,8.06c0.13,0.78,0.05,1.59,0.11,2.38
		C47.73,47.87,47.85,49.33,47.97,50.78z"/>
	<path class="st0" d="M88.35,37.22c-0.5-0.28-1.04-0.5-1.49-0.85c-1.24-0.95-2.82-1.08-3.87-0.26c-0.77,0.6-0.81,1.26-0.05,1.87
		c0.43,0.35,0.93,0.61,1.4,0.91c3.58,2.3,5.41,7.15,4.22,11.21c-0.65,2.21-2.08,3.64-4.35,4.16c-2.04,0.47-3.71-0.19-4.99-1.8
		c-1.13-1.43-1.42-3.1-1.04-4.85c0.07-0.34,0.6-0.58,0.92-0.86c0.09,0.08,0.17,0.16,0.26,0.24c0,0.67-0.02,1.33,0,2
		c0.06,1.96,0.95,3.07,2.54,3.18c1.88,0.12,3.56-1.13,3.74-2.94c0.35-3.48-1.05-6.11-4.03-7.93c-0.71-0.43-1.42-0.9-2-1.49
		c-1.21-1.21-1.48-2.71-0.93-4.31c0.58-1.69,1.85-2.67,3.57-3.02C85.03,31.91,87.95,33.96,88.35,37.22z"/>
	<path class="st0" d="M64.61,64.45c-0.48-0.2-1.03-0.33-1.44-0.63c-0.89-0.64-1.85-1.09-2.89-0.68c-0.63,0.25-1.28,0.8-1.58,1.38
		c-0.11,0.22,0.63,1.12,1.15,1.39c2.19,1.12,3.79,2.77,4.8,4.98c1.2,2.62,1.45,5.31,0.17,7.96c-1.11,2.31-4.08,3.61-6.33,2.88
		c-2.4-0.77-4.09-3.61-3.62-6.18c0.07-0.39,0.5-0.72,0.76-1.08c0.13,0.07,0.25,0.13,0.38,0.2c0.06,0.74,0.09,1.48,0.17,2.22
		c0.22,1.94,1.19,2.87,2.89,2.81c1.79-0.06,3.28-1.39,3.36-3.08c0.16-3.33-1.16-5.87-4.08-7.54c-0.59-0.34-1.21-0.62-1.76-1.01
		c-1.82-1.27-2.44-3.31-1.65-5.25c0.77-1.89,2.9-3.11,4.9-2.91c2.61,0.26,3.86,2.08,5.01,4.05C64.77,64.13,64.69,64.29,64.61,64.45z
		"/>
	<path class="st0" d="M119.15,76.32c0.33,0.75,0.52,1.45,0.9,2.02c0.96,1.46,2.36,1.54,3.4,0.15c0.71-0.95,1.17-2.08,1.84-3.06
		c0.24-0.35,0.76-0.49,1.15-0.73c-0.02,0.39,0.09,0.86-0.08,1.17c-0.85,1.52-1.63,3.12-2.72,4.47c-1.97,2.45-5.42,2.09-7.05-0.59
		c-2.06-3.39-1.36-10.06,1.38-12.95c2.42-2.56,5.99-2.26,7.82,0.66c1.07,1.71,0.61,3.35-0.39,4.81
		C123.96,74.42,122,75.93,119.15,76.32z M119.07,75.09c2.58-0.04,5.61-2.91,5.73-5.31c0.08-1.51-1.47-2.61-2.86-1.91
		c-0.7,0.36-1.38,0.98-1.79,1.65C119.13,71.19,118.86,73.06,119.07,75.09z"/>
	<path class="st0" d="M143.59,51.85c0.26,0.73,0.41,1.4,0.73,1.96c0.89,1.54,2.37,1.7,3.47,0.34c0.74-0.92,1.27-2.02,1.98-2.98
		c0.23-0.32,0.72-0.45,1.1-0.67c0,0.38,0.14,0.86-0.04,1.14c-0.92,1.48-1.77,3.05-2.92,4.34c-2.18,2.47-5.77,1.84-7.2-1.14
		c-1.66-3.44-0.69-9.64,1.94-12.39c2.63-2.74,6.39-2.28,8.06,0.97c0.86,1.68,0.21,4.06-1.56,5.69
		C147.3,50.84,146.31,51.33,143.59,51.85z M143.51,50.64c2.7-0.11,5.59-2.54,5.99-4.89c0.27-1.6-1.16-2.86-2.66-2.27
		c-0.6,0.24-1.23,0.64-1.63,1.14C143.86,46.35,143.46,48.39,143.51,50.64z"/>
	<path class="st0" d="M117.75,50.49c0.24,0.72,0.38,1.39,0.68,1.96c0.87,1.63,2.35,1.81,3.53,0.4c0.66-0.79,1.18-1.7,1.73-2.57
		c0.33-0.52,0.5-1.3,1.33-0.96c0.1,0.04-0.04,1.08-0.31,1.51c-0.86,1.38-1.68,2.82-2.79,3.99c-2.2,2.33-5.62,1.68-7.04-1.21
		c-1.71-3.48-0.74-9.7,1.94-12.48c2.49-2.59,6.13-2.24,7.89,0.74c0.93,1.58,0.67,3.6-0.83,5.29
		C122.3,48.97,120.43,50.35,117.75,50.49z M117.66,49.37c2.89-0.26,5.54-2.47,5.98-4.95c0.09-0.48-0.07-1.12-0.36-1.53
		c-0.81-1.15-2.25-1.19-3.44-0.06C118.02,44.59,117.66,46.87,117.66,49.37z"/>
	<path class="st0" d="M67.7,48.61c-1.13,2.53-2.06,5.25-4.77,6.64c-2.12,1.09-4.73-0.13-5.75-2.57c-1.12-2.68-1-5.45-0.31-8.21
		c0.41-1.64,1.09-3.16,2.39-4.33c2.54-2.28,5.78-1.83,7.52,1.07c0.97,1.61,0.57,3.2-0.36,4.61c-1.43,2.16-3.36,3.72-6.4,4.14
		c0.51,0.93,0.82,1.83,1.41,2.5c0.86,0.98,1.96,0.94,2.75-0.09c0.77-1,1.32-2.17,2.02-3.23c0.26-0.39,0.68-0.66,1.03-0.99
		C67.39,48.3,67.55,48.45,67.7,48.61z M60.03,48.77c2.68-0.21,5.49-2.87,5.75-5.3c0.11-1.03-0.71-2.02-1.8-2.14
		c-1.12-0.13-1.94,0.45-2.53,1.28C60.13,44.44,59.8,46.51,60.03,48.77z"/>
	<path class="st0" d="M103.93,27.19c-0.05-0.34-0.25-0.78-0.12-1.01c0.25-0.43,0.66-0.88,1.1-1.03c0.21-0.07,0.87,0.5,0.93,0.85
		c0.15,0.86,0.55,1.3,1.41,1.31c1.05,0.01,1.88-0.54,2.07-1.48c0.12-0.6-0.22-1.5-0.67-1.95c-0.62-0.62-1.55-0.93-2.33-1.4
		c-1.15-0.7-1.5-2.07-0.8-3.07c0.7-1,2.87-1.72,3.61-1.07c0.32,0.28,0.49,1,0.37,1.42c-0.16,0.59-0.68,0.61-1.25,0.23
		c-0.62-0.43-1.18-0.28-1.54,0.51c1.05,0.54,2.02,1.14,3.06,1.57c2.39,0.99,2.15,4.81,0.05,5.83c-1.69,0.82-3.3,1.11-5,0.15
		c-0.2-0.11-0.48-0.32-0.62-0.25c-2.45,1.22-3.39-0.82-4.65-2.13c-0.42-0.43-0.76-0.95-1.13-1.43c-0.16,0.04-0.32,0.08-0.49,0.12
		c0,0.68-0.19,1.45,0.05,2.02c0.26,0.61,0.95,1.04,1.46,1.56c-1.28,0.51-4.66,0.23-5.42-0.43c0.04-0.07,0.08-0.18,0.13-0.19
		c1.82-0.32,1.81-0.32,1.82-2.2c0.01-1.32,0.04-2.63,0.05-3.95c0.01-0.81-0.21-1.38-1.21-1.4c-0.32-0.01-0.63-0.42-0.95-0.65
		c0.32-0.16,0.63-0.45,0.96-0.47c1.63-0.12,3.26-0.2,4.9-0.25c1.32-0.04,1.82,1.04,2.36,1.94c0.66,1.09,0.21,2.19-0.52,2.97
		c-0.72,0.76-0.55,1.39-0.07,1.99c0.62,0.78,1.39,1.44,2.1,2.15C103.7,27.37,103.81,27.28,103.93,27.19z M97.73,21.61
		c-0.03,0.86-0.13,1.61,0.88,1.64c1.18,0.03,1.75-0.43,1.75-1.39c0-1.01-0.59-1.63-1.58-1.64C97.63,20.2,97.71,21.01,97.73,21.61z"
		/>
	<path class="st0" d="M76.43,68.89c-0.5-0.43-0.96-0.92-1.51-1.29c-1.15-0.78-2.29-0.5-3.06,0.62c-1.9,2.77-2.15,5.87-1.61,9.04
		c0.12,0.7,0.93,1.51,1.62,1.82c0.87,0.39,1.53-0.41,2-1.15c0.45-0.71,0.85-1.46,1.27-2.19c0.12,0.02,0.25,0.04,0.37,0.07
		c0.09,0.3,0.35,0.68,0.25,0.89c-0.69,1.41-1.19,3.04-2.25,4.11c-2.14,2.14-5.23,1.25-6.49-1.67c-0.75-1.73-0.83-3.54-0.52-5.39
		c0.41-2.41,0.92-4.78,2.56-6.72c1.91-2.26,5.32-2.57,7.24-0.66C77.22,67.29,77.28,68.07,76.43,68.89z"/>
	<path class="st0" d="M98.84,49.12c0,0.43,0.11,0.89-0.02,1.27c-0.26,0.75-0.57,1.5-1.01,2.16c-1.05,1.58-2.46,2.76-4.47,2.36
		c-2.01-0.39-3.05-1.92-3.52-3.83c-0.51-2.03-0.18-4.03,0.37-6.01c0.56-2.02,1.27-3.95,2.87-5.41c1.59-1.46,3.9-1.88,5.77-0.84
		c0.69,0.38,1.28,1.08,1.68,1.77c0.2,0.34-0.15,1-0.25,1.51c-0.33-0.21-0.72-0.37-0.98-0.65c-1.5-1.57-2.89-1.47-4.09,0.27
		c-1.82,2.65-2.16,5.62-1.75,8.69c0.09,0.64,0.79,1.37,1.41,1.7c0.8,0.43,1.52-0.16,2.02-0.85c0.53-0.75,1.02-1.52,1.52-2.29
		C98.54,49.03,98.69,49.07,98.84,49.12z"/>
	<path class="st0" d="M97.82,79.13c0.55-0.22,0.86-0.35,1.2-0.49c0.09,1.15-0.79,2.72-1.68,3.1c-1.07,0.45-1.84,0.07-2.01-1.24
		c-0.27-2.21-0.49-4.44-0.5-6.67c-0.01-4.7,0.13-9.41,0.22-14.11c0.01-0.39,0.03-0.82,0.2-1.16c0.21-0.42,0.58-0.77,0.88-1.14
		c0.43,0.35,1.07,0.63,1.24,1.08c0.32,0.84,0.51,1.78,0.51,2.68c0.02,3.83-0.04,7.65-0.07,11.48
		C97.81,74.76,97.82,76.87,97.82,79.13z"/>
	<path class="st0" d="M133.93,53.46c0.62-1.71,1.26-3.42,1.86-5.14c0.74-2.1,1.43-4.22,2.2-6.31c0.18-0.5,0.61-0.91,0.92-1.36
		c0.14,0.06,0.28,0.11,0.41,0.17c-0.08,0.47-0.12,0.95-0.26,1.4c-0.99,3.23-1.95,6.48-3.04,9.68c-0.47,1.38-1.14,2.72-1.93,3.94
		c-0.34,0.53-1.2,0.94-1.85,0.97c-0.4,0.02-1.06-0.7-1.23-1.2c-1.37-4.19-2.66-8.41-3.93-12.64c-0.18-0.59-0.19-1.28-0.09-1.89
		c0.06-0.41,0.45-0.76,0.7-1.14c0.35,0.23,0.82,0.38,1.02,0.71c0.39,0.64,0.68,1.35,0.94,2.06c1.2,3.25,2.37,6.51,3.56,9.76
		c0.12,0.33,0.28,0.64,0.42,0.97C133.72,53.42,133.82,53.44,133.93,53.46z"/>
	<path class="st0" d="M37.09,70.87c0.16,1.35,0.31,2.59,0.48,3.99c-5.92,0.81-11.78,1.62-17.74,2.44c-0.21-1.1-0.4-2.12-0.61-3.24
		C25.24,72.98,31.09,71.94,37.09,70.87z"/>
	<path class="st0" d="M131.19,69.1c0.97-1.1,1.87-2.33,2.98-3.33c1.29-1.18,2.25-0.84,2.66,0.85c0.4,1.66,0.65,3.36,0.07,5.26
		c-1.6-1.48-0.62-3.59-1.68-5.2c-1.37,0.96-2.18,2.32-3.01,3.7c-1.14,1.9-0.34,3.81-0.15,5.71c0.14,1.35,0.41,2.68,0.6,4.02
		c0.13,0.93-0.06,1.62-1.19,1.81c-1.07,0.17-1.49-0.34-1.62-1.25c-0.65-4.78-1.29-9.55-1.88-14.34c-0.04-0.29,0.35-0.89,0.59-0.91
		c0.46-0.05,1.24,0.07,1.39,0.36C130.48,66.86,130.81,68.04,131.19,69.1z"/>
	<path class="st0" d="M74.97,26.98c0.72-0.16,1.44-0.45,2.16-0.44c0.75,0.01,0.9-0.28,0.9-0.9c-0.01-1.39-0.01-2.78,0-4.17
		c0.01-0.81-0.2-1.3-1.18-1.17c-0.43,0.06-0.89-0.14-1.34-0.22c-0.03-0.15-0.06-0.3-0.09-0.45c0.66-0.24,1.3-0.62,1.97-0.7
		c1.21-0.14,2.44-0.1,3.66-0.13c1.94-0.04,3.6,0.95,4.29,2.48c0.54,1.19,0.3,4.72-0.93,5.49c-0.92,0.57-2.12,0.88-3.22,0.95
		c-1.91,0.13-3.84,0-5.76-0.04c-0.13,0-0.25-0.16-0.38-0.24C75.02,27.3,75,27.14,74.97,26.98z M80.47,20.49
		c-0.13,0.12-0.79,0.41-0.81,0.75c-0.09,1.46-0.03,2.93,0.06,4.39c0.02,0.28,0.38,0.74,0.64,0.78c1.75,0.26,3.21-1.05,3.34-2.91
		C83.82,21.88,82.57,20.56,80.47,20.49z"/>
	<path class="st0" d="M118.54,19.14c0.19-0.11,0.51-0.43,0.85-0.46c0.86-0.08,1.73-0.05,2.59,0c0.21,0.01,0.55,0.28,0.56,0.44
		c0.01,0.21-0.23,0.57-0.41,0.61c-1.48,0.31-0.7,1.39-0.7,2.13c0,0.92,0.8,0.81,1.43,0.84c0.28,0.01,0.56,0.06,0.84,0.02
		c0.67-0.08,1.9-0.18,1.9-0.3c0.03-0.91-0.18-1.83-0.33-2.75c-0.05-0.27-0.16-0.54-0.24-0.81c0.29-0.07,0.58-0.2,0.86-0.19
		c0.55,0.02,1.12,0.06,1.65,0.2c0.43,0.11,0.81,0.37,1.4,0.64c-1.61,0.9-1.59,0.9-1.57,2.53c0.01,0.99,0.01,1.98-0.1,2.96
		c-0.14,1.21-0.07,2.23,1.45,2.48c-0.63,0.76-2.86,0.88-4.07,0.36c0.95-1.45,1.34-3.6,0.68-3.7c-1.22-0.19-2.53-0.26-3.72,0
		c-0.63,0.14-0.12,2.58,0.86,3.74c-1.24,0-2.4,0.12-3.52-0.05c-0.56-0.08-0.53-0.64-0.03-1.08c0.31-0.27,0.66-0.71,0.67-1.09
		c0.07-1.7,0.09-3.41-0.01-5.11C119.54,20.12,118.98,19.72,118.54,19.14z"/>
	<path class="st0" d="M61.22,27.93c-1.32,0-2.65,0-4.41,0c1.68-1.07,1.42-2.42,1.28-3.89c-1.05-0.07-2.07-0.13-3.09-0.21
		c-0.7-0.05-1.01,0.27-1.06,0.96c-0.08,1.13-0.28,2.28,1.02,3.06c-1.17,0-2.36,0.13-3.49-0.06c-0.52-0.09-0.42-0.69,0.09-1.09
		c0.29-0.22,0.58-0.66,0.59-1.01c0.06-1.9,0.03-3.8,0.03-5.77c-0.38-0.16-0.74-0.3-1.36-0.56c0.44-0.31,0.73-0.67,1.06-0.7
		c0.9-0.08,1.81-0.05,2.71-0.01c0.19,0.01,0.54,0.3,0.52,0.34c-0.1,0.27-0.25,0.67-0.46,0.72c-1.36,0.33-0.69,1.32-0.68,2.05
		c0.02,0.89,0.7,0.93,1.38,0.9c0.16-0.01,0.32,0.05,0.48,0.03c0.82-0.11,2.18,0,2.34-0.39c0.42-1.03,0.27-2.26-0.74-3.1
		c0.75-0.9,3.25-0.56,3.8,0.47c-1.38,0.73-1.35,0.73-1.31,2.34c0.03,1.14,0.02,2.3-0.1,3.43c-0.11,0.98,0.11,1.64,1.12,1.89
		c0.16,0.04,0.31,0.11,0.46,0.16C61.35,27.66,61.28,27.79,61.22,27.93z"/>
	<path class="st0" d="M133.76,27.94c-3.57-0.01-4.26-1.87-4.56-4.78c-0.27-2.59,1.82-4.51,4.43-4.52c2.81-0.02,4.88,2.04,4.85,3.79
		C138.4,25.84,136.63,27.95,133.76,27.94z M136.51,23.8c0.23-1.45-0.57-2.54-1.63-3.21c-0.67-0.42-2.07-0.61-2.56-0.21
		c-1.97,1.62-1.12,5.42,1.3,6.19c0.49,0.16,1.2,0,1.68-0.26C136.25,25.81,136.65,24.91,136.51,23.8z"/>
	<path class="st0" d="M143.67,27.94c-3.62,0.04-4.38-1.92-4.62-4.82c-0.22-2.62,1.83-4.47,4.46-4.48c2.74-0.01,4.86,2.04,4.81,3.83
		C148.22,25.81,146.44,27.97,143.67,27.94z M146.59,23.89c-0.24-1.4-0.87-2.67-1.86-3.38c-1.29-0.93-2.61-0.58-3.24,0.86
		c-0.85,1.94-0.5,3.34,1.18,4.73c0.99,0.82,2,0.86,2.84-0.1C146.02,25.43,146.24,24.61,146.59,23.89z"/>
	<path class="st0" d="M39.26,20.49c1.11,0.58,2.12,1.19,3.19,1.65c2.29,0.98,1.92,4.73,0.16,5.64c-1.45,0.75-2.86,1.16-4.45,0.65
		c-1-0.32-1.72-0.98-1.74-2.02c-0.01-0.43,0.5-1.06,0.93-1.27c0.54-0.26,1.12,0.05,1.13,0.8c0.01,1.14,0.71,1.42,1.67,1.34
		c1-0.08,1.97-1.12,1.87-1.98c-0.09-0.72-0.28-1.37-1.09-1.68c-0.58-0.23-1.08-0.66-1.65-0.93c-1.14-0.55-1.75-1.34-1.43-2.66
		c0.23-0.92,1.61-1.89,2.77-1.91c0.35-0.01,0.89-0.04,1.01,0.15c0.27,0.44,0.55,1.05,0.44,1.5c-0.15,0.62-0.69,0.57-1.24,0.19
		C40.18,19.55,39.65,19.78,39.26,20.49z"/>
	<path class="st0" d="M93.26,25.94c-0.58,1.53-1.2,2.22-2.67,2.02c-1.12-0.15-2.3,0.14-3.45,0.16c-0.39,0.01-0.78-0.19-1.23-0.32
		c0.17-0.32,0.19-0.44,0.24-0.45c1.5-0.31,1.88-1.18,1.63-2.67c-0.18-1.11,0.07-2.3,0.11-3.45c0.02-0.61,0.09-1.21-0.84-1.27
		c-0.24-0.01-0.45-0.51-0.88-1.04c0.96-0.05,1.58-0.1,2.19-0.11c0.68-0.01,1.36,0.04,2.03,0.03c2.09-0.03,2.09-0.03,2.76,2.29
		c-0.55-0.24-0.93-0.47-1.34-0.56c-0.66-0.14-1.33-0.19-2-0.28c-0.09,0.81-0.21,1.62-0.2,2.43c0,0.06,0.94,0.13,1.44,0.16
		c0.31,0.02,0.63-0.02,0.94-0.03c0.01,0.5,0.01,1,0.02,1.5c-0.32-0.02-0.64-0.05-0.96-0.05c-0.52,0-1.4-0.12-1.49,0.08
		c-0.2,0.49-0.19,1.21,0.04,1.69c0.14,0.3,0.86,0.47,1.3,0.44C91.61,26.45,92.31,26.18,93.26,25.94z"/>
	<path class="st0" d="M93.65,79.73c0,0.4,0.07,0.81-0.02,1.19c-0.08,0.34-0.28,0.82-0.53,0.9c-0.29,0.09-0.88-0.09-1.02-0.34
		c-0.36-0.64-0.74-1.36-0.78-2.07c-0.21-3.29-0.31-6.58-0.44-9.87c-0.01-0.27-0.01-0.6,0.11-0.82c0.18-0.3,0.47-0.71,0.74-0.74
		c0.29-0.03,0.8,0.26,0.91,0.53c0.27,0.69,0.47,1.44,0.51,2.18c0.17,3.02,0.26,6.04,0.38,9.06C93.57,79.73,93.61,79.73,93.65,79.73z
		"/>
	<path class="st0" d="M74.68,24.84c-0.54,2.69-1.02,3.1-3.19,3.11c-1.3,0-2.61,0.07-3.91,0.06c-0.25,0-0.51-0.2-0.76-0.3
		c0.14-0.26,0.23-0.7,0.42-0.75c0.99-0.26,0.97-0.97,0.98-1.77c0-0.99,0.22-1.99,0.16-2.98c-0.04-0.7-0.4-1.38-0.61-2.07
		c-0.09-0.28-0.3-0.63-0.21-0.84c0.09-0.22,0.48-0.42,0.75-0.44c1.04-0.05,2.08-0.06,3.11,0.01c0.29,0.02,0.55,0.35,0.83,0.54
		c-0.22,0.24-0.44,0.68-0.67,0.69c-1.21,0.06-1.35,0.8-1.38,1.77c-0.03,1.15-0.18,2.3-0.27,3.45c-0.08,0.97,0.44,1.38,1.31,1.16
		c0.75-0.19,1.45-0.58,2.17-0.9C73.75,25.42,74.08,25.2,74.68,24.84z"/>
	<path class="st0" d="M156.68,24.94c-0.74,2.78-1.03,3.01-3.38,3.01c-1.26,0-2.52,0.07-3.78,0.06c-0.25,0-0.49-0.22-0.74-0.34
		c0.14-0.25,0.24-0.68,0.43-0.73c0.93-0.24,0.94-0.89,0.95-1.65c0.01-0.99,0.22-1.99,0.16-2.98c-0.05-0.74-0.29-1.5-0.63-2.16
		c-0.36-0.7-0.28-1.23,0.48-1.28c1.07-0.07,2.15-0.06,3.23,0.01c0.28,0.02,0.53,0.37,0.8,0.57c-0.24,0.24-0.47,0.68-0.71,0.68
		c-1.19,0.03-1.26,0.82-1.32,1.69c-0.07,1.03-0.25,2.05-0.28,3.08c-0.04,1.61,0.65,2.06,2.18,1.4c0.58-0.25,1.09-0.65,1.64-0.96
		C155.94,25.22,156.2,25.14,156.68,24.94z"/>
	<path class="st0" d="M117.72,24.91c0.12,1.68-1.02,3.04-2.53,3.32c-1.39,0.26-2.41-0.37-2.75-1.94c-0.41-1.89-0.79-3.81,0.32-5.65
		c0.91-1.52,2.64-2.47,4.3-2.14c0.27,0.05,0.68,0.78,0.58,1.05c-0.16,0.46-0.8,1.19-1,1.12c-1.45-0.5-2.21,0.21-2.77,1.35
		c-0.45,0.92-0.17,3.68,0.57,4.07c0.48,0.25,1.31,0.02,1.92-0.18C116.82,25.79,117.16,25.35,117.72,24.91z"/>
	<path class="st0" d="M50.27,25.08c0.19,1.21-0.92,2.78-2.1,3.1c-1.45,0.39-2.62-0.12-3.02-1.5c-0.61-2.12-0.91-4.26,0.33-6.31
		c0.77-1.27,2.85-2.26,4.22-1.85c0.28,0.08,0.6,0.8,0.51,1.11c-0.12,0.43-0.67,1.1-0.94,1.06c-0.87-0.12-1.61-0.23-2.28,0.52
		c-0.77,0.87-0.87,1.88-0.63,2.91c0.18,0.78,0.58,1.51,0.89,2.26c0.77-0.32,1.54-0.63,2.31-0.95C49.78,25.32,50.01,25.2,50.27,25.08
		z"/>
	<path class="st0" d="M171.1,35.92c1.7-1.35,3.23-2.61,4.8-3.8c0.47-0.36,1.02-0.34,1.2,0.38c0.51,2.11,0.99,4.23,1.57,6.68
		C176.01,38.03,173.65,37.02,171.1,35.92z"/>
	<path class="st0" d="M62.13,27.88c1.91-1.33,1.2-3.12,1.25-4.71c0.05-1.51,0.29-3.14-1.58-4.25c3.3-0.5,3.9-0.42,4.5,0.53
		c-0.37,0.15-0.73,0.29-1.21,0.49c0.05,1.04,0.11,2.13,0.15,3.22c0.03,0.67,0.12,1.36,0.04,2.02c-0.1,0.77-0.3,1.49,0.74,1.78
		c0.06,0.02-0.03,0.88-0.06,0.88C64.77,27.89,63.59,27.88,62.13,27.88z"/>
	<path class="st0" d="M158.08,22.93c0.45-0.15,0.8-0.36,1.17-0.38c3.18-0.15,6.36-0.27,9.54-0.35c0.35-0.01,0.71,0.33,1.06,0.51
		c-0.31,0.31-0.57,0.8-0.94,0.89c-1,0.25-2.03,0.4-3.06,0.45c-1.83,0.09-3.67,0.07-5.5,0.09C159.45,24.16,158.66,23.91,158.08,22.93
		z"/>
	<path class="st0" d="M22.46,22.88c0.37-0.11,0.73-0.31,1.1-0.33c3.14-0.15,6.29-0.29,9.44-0.36c0.39-0.01,0.78,0.35,1.18,0.54
		c-0.36,0.31-0.67,0.79-1.09,0.91c-0.83,0.24-1.72,0.37-2.59,0.41c-1.95,0.08-3.91,0.14-5.87,0.07c-0.75-0.03-1.49-0.45-2.24-0.69
		C22.41,23.25,22.44,23.07,22.46,22.88z"/>
	<path class="st0" d="M93.37,66.16c-0.58,0.3-0.93,0.63-1.19,0.57c-0.29-0.07-0.68-0.47-0.71-0.76c-0.02-0.25,0.5-0.8,0.6-0.76
		C92.47,65.36,92.78,65.7,93.37,66.16z"/>
</g>
</svg>
